<?xml version="1.0" encoding="iso-8859-1"?>
<!-- Generator: Adobe Illustrator 19.0.0, SVG Export Plug-In . SVG Version: 6.00 Build 0)  -->
<svg version="1.1" id="Layer_1" xmlns="http://www.w3.org/2000/svg" xmlns:xlink="http://www.w3.org/1999/xlink" x="0px" y="0px"
	 viewBox="0 0 512.001 512.001" style="enable-background:new 0 0 512.001 512.001;" xml:space="preserve">
<path style="fill:#3F51B5;" d="M512.001,256.006c0,141.395-114.606,255.998-255.996,255.994
	C114.606,512.004,0.001,397.402,0.001,256.006C-0.007,114.61,114.606,0,256.005,0C397.395,0,512.001,114.614,512.001,256.006z"/>
<path style="fill:#3F51B5;" d="M512.001,256.005c0-19.735-2.307-38.922-6.533-57.375c-0.228-0.153-0.459-0.295-0.685-0.455
	c-0.229-0.323-94.338-94.433-94.661-94.662c-0.229-0.323-0.362-0.691-0.653-0.981c-2.762-2.762-7.235-2.762-9.998,0L330.1,171.903
	c-0.437-0.583-25.381-25.521-26.023-25.979c-1.281-1.797-3.279-3.045-5.657-3.045c-3.907,0-7.07,3.166-7.07,7.07v63.629
	c0,2.375,74.218,77.012,74.86,77.47c0.07,0.098,0.125,0.205,0.201,0.3h-1.668c-0.078-0.061-0.165-0.109-0.246-0.166
	c-0.459-0.641-72.804-72.987-73.444-73.444c-0.457-0.641-71.173-71.356-71.812-71.812c-1.281-1.797-3.28-3.045-5.658-3.045
	c-3.909,0-7.07,3.166-7.07,7.07v46.561c-15.698-15.699-90.716-90.716-90.716-90.716l-3.264-3.264c-2.762-2.762-7.235-2.762-9.998,0
	s-2.762,7.235,0,9.998c0,0,1.63,1.63,1.632,1.633c28.634,28.634,92.348,92.348,92.348,92.348h-53.633
	c-3.906,0-7.069,3.166-7.069,7.07c0,2.375,1.247,4.374,3.044,5.657c0.457,0.641,71.939,72.019,72.014,72.113h-67.989
	c-3.906,0-7.069,3.166-7.069,7.07c0,2.375,1.247,4.374,3.044,5.657c0.457,0.641,28.736,28.921,29.376,29.378
	c0.045,0.062,0.082,0.129,0.128,0.19l-65.827,65.827c-2.762,2.762-2.762,7.235,0,9.997c0.289,0.289,0.657,0.422,0.98,0.651
	c0.229,0.323,0.362,0.692,0.651,0.981s0.659,0.422,0.981,0.652c0.229,0.323,91.76,92.089,92.049,92.379
	c0.289,0.289,0.656,0.422,0.979,0.651c0.161,0.227,0.305,0.46,0.459,0.689c18.452,4.226,37.635,6.532,57.371,6.532
	C397.395,512.004,512.001,397.401,512.001,256.005z"/>
<g>
	<path style="fill:#fff;" d="M298.42,220.651h70.7c3.908,0,7.07-3.166,7.07-7.07c0-3.904-3.163-7.07-7.07-7.07h-53.632
		l93.981-93.981c2.762-2.762,2.762-7.235,0-9.997c-2.762-2.762-7.235-2.762-9.997,0l-93.981,93.981v-46.562
		c0-3.904-3.163-7.07-7.07-7.07c-3.908,0-7.07,3.166-7.07,7.07v63.63C291.35,217.485,294.513,220.651,298.42,220.651z"/>
	<path style="fill:#fff;" d="M213.581,291.349h-70.7c-3.908,0-7.07,3.166-7.07,7.07s3.163,7.07,7.07,7.07h53.632l-93.981,93.981
		c-2.762,2.762-2.762,7.235,0,9.997c1.381,1.381,3.189,2.071,4.998,2.071s3.618-0.69,4.998-2.071l93.981-93.981v46.562
		c0,3.904,3.163,7.07,7.07,7.07c3.908,0,7.07-3.166,7.07-7.07v-63.63C220.651,294.515,217.489,291.349,213.581,291.349z"/>
	<path style="fill:#fff;" d="M315.487,305.489h53.632c3.908,0,7.07-3.166,7.07-7.07s-3.163-7.07-7.07-7.07h-70.7
		c-3.908,0-7.07,3.166-7.07,7.07v63.63c0,3.904,3.163,7.07,7.07,7.07c3.908,0,7.07-3.166,7.07-7.07v-46.562l93.981,93.981
		c1.381,1.381,3.189,2.071,4.998,2.071s3.618-0.69,4.998-2.071c2.762-2.762,2.762-7.235,0-9.997L315.487,305.489z"/>
	<path style="fill:#fff;" d="M213.581,142.881c-3.908,0-7.07,3.166-7.07,7.07v46.562l-93.981-93.981
		c-2.762-2.762-7.235-2.762-9.997,0c-2.762,2.762-2.762,7.235,0,9.997l93.981,93.981h-53.632c-3.908,0-7.07,3.166-7.07,7.07
		c0,3.904,3.163,7.07,7.07,7.07h70.7c3.908,0,7.07-3.166,7.07-7.07v-63.63C220.651,146.047,217.489,142.881,213.581,142.881z"/>
</g>
<g>
</g>
<g>
</g>
<g>
</g>
<g>
</g>
<g>
</g>
<g>
</g>
<g>
</g>
<g>
</g>
<g>
</g>
<g>
</g>
<g>
</g>
<g>
</g>
<g>
</g>
<g>
</g>
<g>
</g>
</svg>
